<svg xmlns="http://www.w3.org/2000/svg" viewBox="0 0 512 512" width="512" height="512"> <rect width="100%" height="100%" fill="#ffffff" /> <!-- Clinic Base --> <g transform="skewY(-20) scale(1.1)"> <rect x="140" y="180" width="230" height="160" rx="10" fill="#E8EAEF" stroke="none" /> <rect x="160" y="200" width="60" height="80" rx="5" fill="#A2C1D2" /> <rect x="240" y="200" width="100" height="40" rx="5" fill="#C4D6DF" /> <!-- Roof --> <polygon points="135,180 380,180 370,160 145,160" fill="#A2C1D2" /> <!-- Tooth Sign --> <circle cx="255" cy="150" r="20" fill="#F9F9F9" stroke="#ccc" stroke-width="2" /> </g> <!-- Tooth icon --> <g transform="translate(380, 320)"> <path d="M30,10 C30,-10 10,-10 10,10 C10,30 20,40 20,30 C20,40 30,30 30,10 Z" fill="#F9F9F9" /> </g> <!-- Plant Pot --> <g transform="translate(100, 340)"> <ellipse cx="20" cy="40" rx="20" ry="10" fill="#D4BAA6" /> <path d="M10,30 C15,10 25,10 30,30 Z" fill="#7BAE85" /> </g> </svg>